<svg width="1564" height="1564" xmlns="http://www.w3.org/2000/svg">
 <defs>
  <clipPath id="c_10">
   <path id="svg_1" d="m0,0l1564,0l0,1564l-1564,0l0,-1564z"/>
  </clipPath>
  <style type="text/css">
   <![CDATA[

.g0_10{
fill: #FFFFFF;
}
.g1_10{
fill: #BCD3F4;
}

]]>
  </style>
 </defs>
 <g>
  <title>background</title>
  <rect fill="none" id="canvas_background" height="402" width="582" y="-1" x="-1"/>
 </g>
 <g>
  <title>Layer 1</title>
  <g id="svg_2" clip-path="url(#c_10)">
   <path id="svg_5" class="g1_10" d="m389.2,231.4c-45.4,0 -68.3,0.1 -92.6,7.7c-26.7,9.8 -47.7,30.8 -57.5,57.5c-7.7,24.4 -7.7,47.4 -7.7,92.6l0,785.3c0,46 0,69 7.7,93.4c9.8,26.7 30.8,47.7 57.5,57.4c24.4,7.7 47.4,7.7 92.6,7.7l785.3,0c46,0 69,0 93.4,-7.7c26.7,-9.7 47.7,-30.7 57.4,-57.4c7.7,-24.4 7.7,-47.5 7.7,-92.7l0,-785.3c0,-45.9 0,-68.9 -7.7,-93.3c-9.7,-26.7 -30.7,-47.7 -57.4,-57.5c-24.4,-7.7 -47.5,-7.7 -92.7,-7.7l-786,0zm59,82.6l668.1,0c38.4,0 58,0 78.7,6.6c22.7,8.3 40.6,26.1 48.8,48.8c6.6,20.8 6.6,40.3 6.6,79.4l0,667.5c0,38.4 0,58 -6.6,78.7c-8.2,22.7 -26.1,40.6 -48.8,48.8c-20.7,6.6 -40.3,6.6 -79.3,6.6l-667.5,0c-38.5,0 -58,0 -78.8,-6.6c-22.7,-8.2 -40.5,-26.1 -48.8,-48.8c-6.6,-20.7 -6.6,-40.3 -6.6,-79.3l0,-667.5c0,-38.5 0,-58 6.6,-78.8c8.3,-22.7 26.1,-40.5 48.8,-48.8c20.7,-6.5 40.2,-6.6 78.8,-6.6z"/>
  </g>
 </g>
</svg>