<svg width="1564" height="1564" xmlns="http://www.w3.org/2000/svg">
 <defs>
  <clipPath id="c_3">
   <path id="svg_1" d="m0,0l1564,0l0,1564l-1564,0l0,-1564z"/>
  </clipPath>
  <style type="text/css">
   <![CDATA[

.g0_3{
fill: #FFFFFF;
}
.g1_3{
fill: #474747;
}

]]>
  </style>
 </defs>
 <g>
  <title>background</title>
  <rect fill="none" id="canvas_background" height="402" width="582" y="-1" x="-1"/>
 </g>
 <g>
  <title>Layer 1</title>
  <g id="svg_2" clip-path="url(#c_3)">
   <path id="svg_5" class="g1_3" d="m389.2,340.8c-45.4,0 -68.3,0 -92.6,7.7c-26.7,9.7 -47.7,30.8 -57.5,57.5c-7.7,24.4 -7.7,47.4 -7.7,92.6l0,54.5l82.6,0c0,-35.3 0.3,-54.4 6.6,-74.3c8.3,-22.7 26.1,-40.6 48.8,-48.8c20.7,-6.6 40.2,-6.6 78.8,-6.6l104.9,0l0,-82.6l-163.9,0zm622.2,0l0,82.6l104.9,0c38.4,0 58,0 78.7,6.6c22.7,8.2 40.6,26.1 48.8,48.8c6.3,19.7 6.6,38.9 6.6,74.3l82.6,0l0,-53.8c0,-46 0,-68.9 -7.7,-93.3c-9.7,-26.7 -30.7,-47.8 -57.4,-57.5c-24.4,-7.7 -47.5,-7.7 -92.7,-7.7l-163.8,0zm-780,670.6l0,53.7c0,46 0,68.9 7.7,93.3c9.8,26.7 30.8,47.8 57.5,57.5c24.4,7.8 47.4,7.8 92.6,7.8l163.9,0l0,-82.6l-104.9,0c-38.5,0 -58,-0.1 -78.8,-6.6c-22.7,-8.3 -40.5,-26.2 -48.8,-48.9c-6.3,-19.7 -6.6,-38.9 -6.6,-74.2l-82.6,0zm1019,0c0,35.2 -0.3,54.4 -6.6,74.2c-8.2,22.7 -26.1,40.6 -48.8,48.9c-20.7,6.5 -40.3,6.6 -79.3,6.6l-104.3,0l0,82.6l163.1,0c46,0 69,0 93.4,-7.8c26.7,-9.7 47.7,-30.8 57.4,-57.5c7.7,-24.4 7.7,-47.3 7.7,-92.6l0,-54.4l-82.6,0z"/>
  </g>
 </g>
</svg>