<svg width="1564" height="1564" xmlns="http://www.w3.org/2000/svg">
 <defs>
  <clipPath id="c_19">
   <path id="svg_1" d="m0,0l1564,0l0,1564l-1564,0l0,-1564z"/>
  </clipPath>
  <style type="text/css">
   <![CDATA[

.g0_19{
fill: #FFFFFF;
}
.g1_19{
fill: #BCD3F4;
}

]]>
  </style>
 </defs>
 <g>
  <title>background</title>
  <rect fill="none" id="canvas_background" height="402" width="582" y="-1" x="-1"/>
 </g>
 <g>
  <title>Layer 1</title>
  <g id="svg_2" clip-path="url(#c_19)">
   <path id="svg_5" class="g1_19" d="m1189.4,375.8c-42.8,0 -77.5,34.7 -77.5,77.4l0,262.1l-531,0l194.1,-194.1c30.3,-30.2 30.3,-79.3 0,-109.5c-30.2,-30.3 -79.3,-30.3 -109.5,0l-313.1,313.1c-15.8,15.8 -23.1,36.7 -22.4,57.4c-0.1,1.8 -0.1,3.5 0,5.3c-0.2,1.8 -0.3,3.5 -0.3,5.3c0,31.9 19.4,59.3 47,71.2l288.8,288.8c30.2,30.2 79.3,30.2 109.5,0c30.3,-30.3 30.3,-79.3 0,-109.6l-173,-173l587.4,0c2.6,0 5.3,-0.1 7.9,-0.4c39.1,-3.9 69.5,-36.9 69.5,-77l0,-339.6c0,-42.7 -34.7,-77.4 -77.4,-77.4z"/>
  </g>
 </g>
</svg>