<svg width="1564" height="1564" xmlns="http://www.w3.org/2000/svg">
 <defs>
  <clipPath id="c_24">
   <path id="svg_1" d="m0,0l1564,0l0,1564l-1564,0l0,-1564z"/>
  </clipPath>
  <style type="text/css">
   <![CDATA[

.g0_24{
fill: #FFFFFF;
}
.g1_24{
fill: #474747;
}

]]>
  </style>
 </defs>
 <g>
  <title>background</title>
  <rect fill="none" id="canvas_background" height="402" width="582" y="-1" x="-1"/>
 </g>
 <g>
  <title>Layer 1</title>
  <g id="svg_2" clip-path="url(#c_24)">
   <path id="svg_5" class="g1_24" d="m779,193.2c-24.3,0 -48.5,9.3 -67,27.8l-382.7,382.7c-36.9,36.9 -36.9,96.9 0,133.8c37,37 96.9,37 133.9,0l224.3,-224.3l0,417.4c0,52.2 42.4,94.6 94.7,94.6c52.3,0 94.7,-42.4 94.7,-94.6l0,-417.4l224.3,224.3c37,37 96.9,37 133.9,0c37,-36.9 37,-96.9 0,-133.8l-382.7,-382.7c-19.3,-19.4 -44.9,-28.5 -70.2,-27.6c-1.1,-0.1 -2.1,-0.2 -3.2,-0.2zm3.2,926c-52.3,0 -94.7,42.4 -94.7,94.7l0,101.9c0,52.3 42.4,94.6 94.7,94.6c52.3,0 94.7,-42.3 94.7,-94.6l0,-101.9c0,-52.3 -42.4,-94.7 -94.7,-94.7z"/>
  </g>
 </g>
</svg>