<svg width="1564" height="1564" xmlns="http://www.w3.org/2000/svg">
 <defs>
  <clipPath id="c_32">
   <path id="svg_1" d="m0,0l1564,0l0,1564l-1564,0l0,-1564z"/>
  </clipPath>
  <style type="text/css">
   <![CDATA[

.g0_32{
fill: #FFFFFF;
}
.g1_32{
fill: #BCD3F4;
}

]]>
  </style>
 </defs>
 <g>
  <title>background</title>
  <rect fill="none" id="canvas_background" height="402" width="582" y="-1" x="-1"/>
 </g>
 <g>
  <title>Layer 1</title>
  <g id="svg_2" clip-path="url(#c_32)">
   <path id="svg_5" class="g1_32" d="m482.6,403.8c-209,0 -378.4,169.4 -378.4,378.4c0,209 169.4,378.5 378.4,378.5l599.2,0c209,0 378.5,-169.5 378.5,-378.5c0,-209 -169.5,-378.4 -378.5,-378.4l-599.2,0zm586,35.2c87.8,0 175.7,33.5 242.7,100.5c134,134.1 134,351.4 0,485.4c-134.1,134 -351.4,134 -485.4,0c-134,-134 -134,-351.3 0,-485.4c67,-67 154.9,-100.5 242.7,-100.5z"/>
  </g>
 </g>
</svg>