<svg width="1564" height="1564" xmlns="http://www.w3.org/2000/svg">
 <defs>
  <clipPath id="c_1">
   <path id="svg_1" d="m0,0l1564,0l0,1564l-1564,0l0,-1564z"/>
  </clipPath>
  <clipPath id="c0_1">
   <path id="svg_2" d="m620.3,743l0,-323.9l323.9,0l0,323.9l-323.9,0z"/>
  </clipPath>
  <style type="text/css">
   <![CDATA[

.g0_1{
fill: #9CC9FB;
}
.g1_1{
fill: #F7F7F7;
}

]]>
  </style>
 </defs>
 <g>
  <title>background</title>
  <rect fill="none" id="canvas_background" height="402" width="582" y="-1" x="-1"/>
 </g>
 <g>
  <title>Layer 1</title>
  <g id="svg_3" clip-path="url(#c_1)">
   <path id="svg_6" class="g1_1" d="m1262.8,301.6c265.4,265.5 265.4,695.8 0,961.2c-265.4,265.4 -695.7,265.4 -961.2,0c-265.4,-265.4 -265.4,-695.7 0,-961.2c265.5,-265.4 695.8,-265.4 961.2,0z"/>
   <path id="svg_7" class="g0_1" d="m755.8,775.1c-66.7,0 -100.4,0.1 -136,11.4c-39.3,14.3 -70.2,45.2 -84.4,84.4c-11.4,35.8 -11.4,69.6 -11.4,136.1l0,85.4c0,13.1 0,23.9 0.1,34.7l516.2,0c0.1,-10.5 0.2,-21 0.2,-33.7l0,-85.4c0,-67.5 0,-101.3 -11.4,-137.1c-14.3,-39.2 -45.2,-70.1 -84.4,-84.4c-35.8,-11.4 -69.6,-11.4 -136.1,-11.4l-52.8,0z"/>
   <g id="svg_8" clip-path="url(#c0_1)">
    <path id="svg_9" class="g0_1" d="m895.7,467.6c62.6,62.7 62.6,164.2 0,226.9c-62.7,62.6 -164.3,62.6 -226.9,0c-62.7,-62.7 -62.7,-164.2 0,-226.9c62.6,-62.6 164.2,-62.6 226.9,0z"/>
   </g>
  </g>
 </g>
</svg>