<?xml version="1.0" encoding="UTF-8" standalone="no"?>
<!DOCTYPE svg PUBLIC "-//W3C//DTD SVG 1.1//EN"
"http://www.w3.org/Graphics/SVG/1.1/DTD/svg11.dtd">


<!-- Page 8 -->
<svg x="0" y="0" width="1564" height="1564" viewBox="0 0 1564 1564" version="1.1" xmlns="http://www.w3.org/2000/svg" xmlns:xlink="http://www.w3.org/1999/xlink"
style="display: block;margin-left: auto;margin-right: auto;">
<defs>
<clipPath id="c_8"><path d="M0,0H1564V1564H0Z" /></clipPath>
<clipPath id="c0_8"><path d="M0,1564.4V0H1564.4V1564.4Z" /></clipPath>

<style type="text/css"><![CDATA[
text { white-space: pre; }
path, image { pointer-events: none; }
text::-moz-selection {
	color: transparent;
	background: rgba(0, 106, 173, 0.4);
}
text::selection {
	color: transparent;
	background: rgba(0, 106, 173, 0.4);
}

.s1_8{
font-size: 236.81px;
font-family: Inter-Medium_23;
fill: TRANSPARENT;
}

.g0_8{
fill: #9CC9FB;
}
.g1_8{
fill: #F7F7F7;
}

]]></style>

</defs>
<g clip-path="url(#c_8)">
<path d="M1262.8,301.6c265.4,265.5,265.4,695.8,0,961.2c-265.4,265.4,-695.7,265.4,-961.2,0C36.2,997.4,36.2,567.1,301.6,301.6c265.5,-265.4,695.8,-265.4,961.2,0Z" class="g1_8" />
<g clip-path="url(#c0_8)">
<g fill="#9CC9FB" >
<use xlink:href="#f0_2" transform="matrix(155,0,0,155,381.9,867.8)" />
<use xlink:href="#f0_5" transform="matrix(155,0,0,155,567.4,867.8)" />
<use xlink:href="#f0_7" transform="matrix(155,0,0,155,626.3,867.8)" />
<use xlink:href="#f0_3" transform="matrix(155,0,0,155,717,867.8)" />
<use xlink:href="#f0_8" transform="matrix(155,0,0,155,892.7,867.8)" />
<use xlink:href="#f0_4" transform="matrix(155,0,0,155,1033.4,867.8)" />
</g>
</g>
<text x="381" y="867" dx="0,8.1,0,2.6,0,0" class="s1_8">GitHub</text>

</g>
<defs>
<path d="M591,-14c0,0,-150,0,-264,68c0,0,-114,69,-177,197c0,0,-64,128,-64,304c0,0,0,177,65,305c0,0,64,129,177,197c0,0,112,69,256,69c0,0,120,0,217,-46c0,0,98,-46,162,-129c0,0,65,-82,83,-191H874c0,0,-31,99,-105,156c0,0,-73,57,-184,57c0,0,-94,0,-169,-48c0,0,-76,-48,-120,-141c0,0,-43,-93,-43,-228c0,0,0,-135,44,-228c0,0,44,-94,120,-142c0,0,77,-48,174,-48c0,0,134,0,216,79c0,0,82,79,84,213H617V569h437V442c0,0,0,-140,-60,-243C994,199,935,97,831,41c0,0,-105,-55,-240,-55Z" 
id="f0_2"
transform="scale(0.001,-0.001)" />

<path d="M109,0V833H271V0Zm82,962c0,0,-42,0,-72,28c0,0,-31,29,-31,68c0,0,0,41,31,69c0,0,30,29,72,29c0,0,42,0,72,-29c0,0,31,-28,31,-69c0,0,0,-39,-31,-68c0,0,-30,-28,-72,-28Z" 
id="f0_5"
transform="scale(0.001,-0.001)" />

<path d="M407,-10c-10,0,-68,1,-119,22c0,0,-55,24,-89,74c0,0,-34,50,-34,125V703H43V833H165v200H327V833H498V703H327V245c0,0,0,-71,30,-91c0,0,30,-21,70,-21c0,0,20,0,34,3c0,0,15,3,23,5L513,7C513,7,499,1,473,-4c0,0,-26,-5,-65,-6h-1Z" 
id="f0_7"
transform="scale(0.001,-0.001)" />

<path d="M122,0V1111H290V628H844v483h168V0H844V484H290V0Z" 
id="f0_3"
transform="scale(0.001,-0.001)" />

<path d="M382,-10c0,0,-119,0,-196,79c0,0,-77,79,-77,234V833H271V323c0,0,0,-85,47,-136c0,0,48,-50,123,-50c0,0,46,0,91,23c0,0,45,22,75,69c0,0,30,46,30,117V833H800V0H640V144h-8c0,0,-29,-66,-92,-111c0,0,-64,-43,-158,-43Z" 
id="f0_8"
transform="scale(0.001,-0.001)" />

<path d="M499,122c0,0,72,0,121,39c0,0,49,39,74,105c0,0,25,67,25,151c0,0,0,83,-24,148c0,0,-25,65,-74,103c0,0,-49,38,-122,38c0,0,-107,0,-162,-79c0,0,-56,-80,-56,-210c0,0,0,-132,56,-213c0,0,57,-82,162,-82ZM535,-15c0,0,-76,0,-124,24c0,0,-47,26,-75,60c0,0,-27,34,-42,61H280V0H122V1111H284V698h10c0,0,15,26,41,60c0,0,26,35,74,60c0,0,47,26,124,26c0,0,101,0,180,-51c0,0,79,-51,125,-147c0,0,45,-96,45,-231c0,0,0,-135,-45,-231C838,184,793,87,715,35c0,0,-79,-50,-180,-50Z" 
id="f0_4"
transform="scale(0.001,-0.001)" />


</defs>

</svg>
