<svg width="1564" height="1564" xmlns="http://www.w3.org/2000/svg">
 <defs>
  <clipPath id="c_3">
   <path id="svg_1" d="m0,0l1564,0l0,1564l-1564,0l0,-1564z"/>
  </clipPath>
  <style type="text/css">
   <![CDATA[

.g0_3{
fill: #9CC9FB;
}
.g1_3{
fill: #F7F7F7;
}

]]>
  </style>
 </defs>
 <g>
  <title>background</title>
  <rect fill="none" id="canvas_background" height="402" width="582" y="-1" x="-1"/>
 </g>
 <g>
  <title>Layer 1</title>
  <g id="svg_2" clip-path="url(#c_3)">
   <path id="svg_3" fill="#FFFFFF" d="m1564,1564l0,-1564l0,1564z"/>
   <path id="svg_5" class="g1_3" d="m1262.8,301.6c265.4,265.5 265.4,695.8 0,961.2c-265.4,265.4 -695.7,265.4 -961.2,0c-265.4,-265.4 -265.4,-695.7 0,-961.2c265.5,-265.4 695.8,-265.4 961.2,0z"/>
   <path id="svg_6" class="g0_3" d="m782.2,587.4c-141.6,0 -272.7,64.4 -359.5,176.6l-14.1,18.2l14.1,18.2c86.8,112.3 217.9,176.6 359.5,176.6c141.6,0 272.6,-64.3 359.5,-176.6l14.1,-18.2l-14.1,-18.2c-86.9,-112.2 -217.9,-176.6 -359.5,-176.6zm-73.8,66.3c-44.4,25.6 -74.3,73.6 -74.3,128.5c0,55 29.9,102.9 74.3,128.5c-86.5,-16.3 -164.9,-61 -223.7,-128.5c58.8,-67.5 137.2,-112.2 223.7,-128.5zm147.6,0c86.5,16.3 164.9,61 223.7,128.5c-58.8,67.5 -137.2,112.2 -223.7,128.5c44.4,-25.6 74.3,-73.5 74.3,-128.5c0,-54.9 -29.9,-102.9 -74.3,-128.5zm-24.7,45c20.3,0 36.7,16.4 36.7,36.6c0,20.3 -16.4,36.7 -36.7,36.7c-20.2,0 -36.6,-16.4 -36.6,-36.7c0,-20.2 16.4,-36.6 36.6,-36.6z"/>
  </g>
 </g>
</svg>