<?xml version="1.0" encoding="UTF-8" standalone="no"?>
<!DOCTYPE svg PUBLIC "-//W3C//DTD SVG 1.1//EN"
"http://www.w3.org/Graphics/SVG/1.1/DTD/svg11.dtd">


<!-- Page 7 -->
<svg x="0" y="0" width="1564" height="1564" viewBox="0 0 1564 1564" version="1.1" xmlns="http://www.w3.org/2000/svg" xmlns:xlink="http://www.w3.org/1999/xlink"
style="display: block;margin-left: auto;margin-right: auto;">
<defs>
<clipPath id="c_7"><path d="M0,0H1564V1564H0Z" /></clipPath>
<style type="text/css"><![CDATA[

.g0_7{
fill: #9CC9FB;
}
.g1_7{
fill: #F7F7F7;
}

]]></style>

</defs>
<g clip-path="url(#c_7)">
<path d="M1262.8,301.6c265.4,265.5,265.4,695.8,0,961.2c-265.4,265.4,-695.7,265.4,-961.2,0C36.2,997.4,36.2,567.1,301.6,301.6c265.5,-265.4,695.8,-265.4,961.2,0Z" class="g1_7" />
<path d="M558.4,543.6c-21.1,0,-31.8,0,-43,3.6c-12.4,4.5,-22.1,14.2,-26.7,26.6c-3.5,11.3,-3.5,22,-3.5,43V947.3c0,21.3,0,32,3.5,43.3c4.6,12.4,14.3,22.2,26.7,26.7c11.3,3.5,22,3.5,43,3.5h447.4c21.3,0,31.9,0,43.3,-3.5c12.3,-4.5,22.1,-14.3,26.6,-26.7c3.6,-11.3,3.6,-22,3.6,-42.9V617.1c0,-21.3,0,-32,-3.6,-43.3c-4.5,-12.4,-14.3,-22.1,-26.6,-26.6c-11.4,-3.6,-22,-3.6,-43,-3.6H558.4Zm140.1,31.2H866c19.3,0,35,15.7,35,35.1c0,19.3,-15.7,35,-35,35H698.5c-19.4,0,-35.1,-15.7,-35.1,-35c0,-19.4,15.7,-35.1,35.1,-35.1Z" class="g0_7" />

</g>
</svg>
