<svg width="1564" height="1564" xmlns="http://www.w3.org/2000/svg">
 <defs>
  <clipPath id="c_2">
   <path d="m0,0l1564,0l0,1564l-1564,0l0,-1564z" id="svg_1"/>
  </clipPath>
  <style type="text/css">
   <![CDATA[

.g0_2{
fill: #9CC9FB;
}
.g1_2{
fill: #F7F7F7;
}

]]>
  </style>
 </defs>
 <g>
  <title>background</title>
  <rect x="-1" y="-1" width="1566" height="1566" id="canvas_background" fill="none"/>
 </g>
 <g>
  <title>Layer 1</title>
  <g clip-path="url(#c_2)" id="svg_2">
   <path d="m1564,1564l0,-1564l0,1564z" fill="#FFFFFF" id="svg_3"/>
   <path d="m1262.8,301.6c265.4,265.5 265.4,695.8 0,961.2c-265.4,265.4 -695.7,265.4 -961.2,0c-265.4,-265.4 -265.4,-695.7 0,-961.2c265.5,-265.4 695.8,-265.4 961.2,0z" class="g1_2" id="svg_5"/>
   <path d="m782.2,398.8c-105.4,0 -191.2,85.7 -191.2,191.2l0,157.8c-38.2,44.4 -61.4,102.1 -61.4,165.2c0,139.5 113.1,252.6 252.6,252.6c139.5,0 252.6,-113.1 252.6,-252.6c0,-63.1 -23.1,-120.8 -61.4,-165.2l0,-157.8c0,-105.5 -85.7,-191.2 -191.2,-191.2zm0,95.9c52.6,0 95.5,42.9 95.5,95.5l0,89c-29.4,-12.1 -61.6,-18.8 -95.5,-18.8c-33.9,0 -66,6.7 -95.5,18.8l0,-89c0,-52.6 42.9,-95.5 95.5,-95.5zm0,284.4c74.1,0 134,59.9 134,133.9c0,74.1 -59.9,134 -134,134c-74,0 -133.9,-59.9 -133.9,-134c0,-74 59.9,-133.9 133.9,-133.9zm0,22.1c-28.6,0 -57.2,11 -79,32.8c-43.6,43.7 -43.6,114.4 0,158c43.7,43.7 114.4,43.7 158,0c43.7,-43.6 43.7,-114.3 0,-158c-21.8,-21.8 -50.4,-32.8 -79,-32.8z" class="g0_2" id="svg_6"/>
  </g>
 </g>
</svg>