<svg width="1564" height="1564" xmlns="http://www.w3.org/2000/svg">
 <defs>
  <clipPath id="c_4">
   <path id="svg_1" d="m0,0l1564,0l0,1564l-1564,0l0,-1564z"/>
  </clipPath>
  <style type="text/css">
   <![CDATA[

.g0_4{
fill: #9CC9FB;
}
.g1_4{
fill: #F7F7F7;
}

]]>
  </style>
 </defs>
 <g>
  <title>background</title>
  <rect fill="none" id="canvas_background" height="402" width="582" y="-1" x="-1"/>
 </g>
 <g>
  <title>Layer 1</title>
  <g id="svg_2" clip-path="url(#c_4)">
   <path id="svg_5" class="g1_4" d="m1262.8,301.6c265.4,265.5 265.4,695.8 0,961.2c-265.4,265.4 -695.7,265.4 -961.2,0c-265.4,-265.4 -265.4,-695.7 0,-961.2c265.5,-265.4 695.8,-265.4 961.2,0z"/>
   <path id="svg_6" class="g0_4" d="m669.5,736.3c-1.7,-0.2 -2.9,0.6 -4,2.8c-4.9,9 -10.2,17.7 -15.2,26.6c-1.9,3.3 -4,4.9 -8.3,4.5c-7.6,-0.8 -15.3,-0.7 -22.9,0.6c-3.4,0.6 -5.3,-0.3 -7.2,-3.2c-5.7,-8.9 -11.8,-17.6 -17.6,-26.5c-1.6,-2.5 -2.9,-2.8 -5.5,-1.6c-17.4,8 -34.8,16 -52.3,23.6c-3.2,1.5 -3.2,2.9 -2.4,5.8c2.9,10 5.3,20.1 8.2,30.2c0.9,3.2 0.5,5.4 -2.2,7.6c-6.1,5 -11.5,10.7 -16.1,17c-2.4,3.4 -4.9,3.7 -8.3,3c-10,-2 -20.1,-3.8 -30.1,-6.1c-3.2,-0.7 -4.5,0 -5.7,3c-6.5,17.7 -13.2,35.4 -20,53.1c-1.1,3 -0.6,4.4 2.3,6c9,4.9 17.7,10.2 26.6,15.2c3.3,1.9 4.8,4 4.4,8.4c-0.9,7.5 -0.5,15.2 0.8,22.8c0.6,3.4 -0.4,5.3 -3.3,7.2c-9,5.7 -17.6,11.8 -26.6,17.6c-2.5,1.6 -2.7,2.9 -1.5,5.5c8,17.4 15.9,34.8 23.6,52.3c1.5,3.2 2.9,3.2 5.8,2.4c10,-2.9 20.1,-5.5 30.2,-8.1c1.5,-0.4 3,-0.6 4.6,-1c0.7,0.9 1.3,1.7 2,2.4c5.3,6 11.1,11.6 17.6,16.3c3.6,2.5 4.2,5.1 3.4,8.9c-2.1,10 -3.9,20 -6.1,30c-0.8,3.1 -0.1,4.6 2.9,5.7c17.8,6.5 35.5,13.2 53.2,20c2.9,1.1 4.4,0.7 6,-2.3c4.9,-8.9 10.1,-17.7 15.2,-26.6c1.8,-3.2 3.9,-4.9 8.3,-4.5c7.3,0.8 14.9,0.9 22.2,-0.6c4.5,-0.8 6.4,1 8.4,4.2c5.6,8.5 11.5,16.9 17,25.5c1.6,2.5 2.9,2.9 5.6,1.6c17.3,-8 34.7,-15.9 52.2,-23.6c3.2,-1.4 3.3,-2.9 2.4,-5.8c-2.8,-10 -5.2,-20.1 -8.1,-30.1c-0.9,-3.3 -0.6,-5.4 2.1,-7.7c6.1,-4.9 11.6,-10.6 16.2,-17c2.3,-3.3 4.8,-3.7 8.3,-3c10,2 20,3.8 30,6.1c3.2,0.7 4.6,0.1 5.7,-2.9c6.6,-17.8 13.2,-35.5 20,-53.2c1.1,-2.9 0.7,-4.4 -2.2,-6c-9,-4.9 -17.7,-10.1 -26.6,-15.2c-3.3,-1.9 -4.9,-4 -4.4,-8.3c0.8,-7.6 0.4,-15.3 -0.9,-22.9c-0.5,-3.4 0.5,-5.3 3.4,-7.2c8.9,-5.7 17.6,-11.8 26.5,-17.5c2.5,-1.7 2.8,-3 1.6,-5.6c-8,-17.4 -16,-34.8 -23.7,-52.3c-1.4,-3.2 -2.8,-3.1 -5.7,-2.3c-10.2,2.9 -20.6,5.4 -30.8,8.3c-2.8,0.7 -4.6,0.3 -6.5,-2c-5,-6.1 -10.9,-11.4 -17.2,-16c-3.5,-2.5 -4.1,-5.1 -3.4,-8.8c2.1,-10 3.9,-20.1 6.2,-30c0.7,-3.2 0.1,-4.6 -3,-5.8c-17.7,-6.5 -35.4,-13.2 -53.1,-20c-0.8,-0.2 -1.4,-0.4 -2,-0.5zm-33.9,95.1c44.8,0 81.2,36.4 81.2,81.2c0,44.8 -36.4,81.1 -81.2,81.1c-44.8,0 -81.1,-36.3 -81.1,-81.1c0,-44.8 36.3,-81.2 81.1,-81.2z"/>
   <path id="svg_7" class="g0_4" d="m905.2,475.6c-0.1,0 -2.4,0.4 -5,0.9l-26.3,6.3c-2.5,0.8 -4.7,1.4 -4.9,1.5c-0.1,0.1 -0.2,2.3 -0.2,5l0.2,15c0,2.6 -2,5.8 -4.4,6.9l-12.2,6.3c-2.4,1.3 -6.1,1.2 -8.2,-0.4l-12.3,-8.8c-2.2,-1.6 -4.1,-2.7 -4.2,-2.6c0,0.1 -1.9,1.5 -4,3.2l-20.2,17.4c-2,1.9 -3.6,3.5 -3.7,3.6c-0.1,0.1 0.9,2.1 2.1,4.5l6.9,12.9c1.3,2.4 1,6 -0.6,8.1l-8.9,12.2c-1.5,2.2 -4.8,3.7 -7.5,3.4l-14.7,-1.9c-2.7,-0.4 -4.9,-0.6 -5,-0.5c-0.1,0.1 -1,2.2 -2.2,4.7l-9.7,24.2c-0.9,2.5 -1.6,4.7 -1.7,4.8c0,0.2 1.8,1.5 4,3l11.8,8c2.2,1.5 3.7,4.8 3.1,7.5l-2.4,16.7c-0.3,2.7 -2.6,5.7 -5.2,6.6l-13.5,4.9c-2.5,0.9 -4.6,1.8 -4.6,2c0,0.2 0.1,2.4 0.3,5.1l2.5,25.1c0.4,2.7 0.7,5 0.8,5.2c0,0.1 2.2,0.5 4.9,0.8l13.7,1.5c2.6,0.2 5.5,2.6 6.3,5.2l6.2,17.9c1,2.4 0.4,6.2 -1.5,8.1l-9.3,10.2c-1.8,1.9 -3.3,3.6 -3.2,3.7c0.1,0.1 1.2,2.2 2.7,4.5l13.6,20.4c1.5,2.1 3,3.9 3,4.1c0.1,0.1 2.2,-0.6 4.7,-1.6l12.4,-4.9c2.5,-1 6.1,-0.3 8,1.6l15.2,14c2,1.7 3.2,5.2 2.6,7.8l-3.5,13.1c-0.7,2.6 -1.2,4.8 -1.1,4.9c0.1,0.1 2.1,1.2 4.4,2.6l21.1,11.3c2.4,1.2 4.6,2.1 4.7,2.2c0.1,0.1 1.7,-1.6 3.5,-3.6l8.6,-10c1.8,-2 5.3,-3.1 7.9,-2.3l21,5.3c2.6,0.6 5.3,3.1 5.9,5.8l3,12.9c0.6,2.6 1.2,4.7 1.3,4.7c0.1,0 2.5,0.2 5.1,0.4l7,0.3c2.7,0.1 7.1,0.1 9.8,0l7,-0.3c2.6,-0.2 4.9,-0.4 5.1,-0.4c0.2,0 0.7,-2.2 1.3,-4.7l3,-12.9c0.7,-2.7 3.3,-5.2 5.9,-5.8l21.1,-5.3c2.5,-0.8 6,0.3 7.8,2.3l8.6,10c1.8,2 3.3,3.6 3.5,3.6c0.1,-0.1 2.2,-1 4.7,-2.2l21.1,-11.3c2.3,-1.4 4.2,-2.5 4.4,-2.6c0.1,-0.1 -0.4,-2.3 -1.1,-4.9l-3.4,-13.1c-0.7,-2.5 0.4,-6 2.5,-7.8l15.2,-14c1.9,-1.9 5.5,-2.6 8,-1.6l12.4,4.9c2.5,1 4.6,1.7 4.7,1.6c0.1,-0.1 1.5,-1.9 3.1,-4.1l13.6,-20.4c1.4,-2.3 2.5,-4.4 2.6,-4.5c0.1,-0.1 -1.3,-1.8 -3.2,-3.7l-9.3,-10.4c-1.8,-1.9 -2.5,-5.6 -1.5,-8.1l6.2,-17.9c0.8,-2.6 3.7,-4.9 6.3,-5.2l13.7,-1.5c2.6,-0.3 4.9,-0.6 4.9,-0.8c0,-0.2 0.4,-2.4 0.8,-5.1l2.5,-25.2c0.2,-2.6 0.3,-4.9 0.3,-5.1c-0.3,0 -2.3,-0.9 -4.9,-1.8l-13.5,-4.9c-2.6,-0.9 -4.9,-3.9 -5.1,-6.6l-2.5,-16.7c-0.5,-2.7 0.9,-6 3.1,-7.5l11.8,-8c2.3,-1.5 4.1,-2.8 4,-3c0,-0.2 -0.8,-2.3 -1.7,-4.8l-9.7,-24.2c-1.1,-2.5 -2.1,-4.5 -2.2,-4.7c-0.1,-0.2 -2.3,0.1 -4.9,0.5l-14.8,1.9c-2.6,0.3 -6.1,-1.1 -7.5,-3.4l-8.8,-12.2c-1.7,-2.1 -1.9,-5.7 -0.7,-8.1l7,-12.9c1.2,-2.4 2.2,-4.4 2.1,-4.5c-0.1,-0.1 -1.8,-1.7 -3.7,-3.6l-20.2,-17.4c-2.2,-1.7 -4,-3.1 -4.1,-3.2c-0.1,-0.1 -2,1.1 -4.2,2.6l-12.2,8.8c-2.2,1.6 -5.9,1.7 -8.2,0.4l-12.3,-6.3c-2.5,-1.1 -4.4,-4.2 -4.3,-6.9l0.2,-15c0,-2.7 0,-5 -0.2,-5c-0.1,-0.1 -2.4,-0.7 -5,-1.5l-26.2,-6.3c-2.7,-0.6 -5,-0.9 -5.1,-0.9c-0.2,0 -1.2,1.9 -2.4,4.3l-6.9,13.5c-1.3,2.4 -4.5,4.3 -7.1,4.2l-13.2,0c-2.7,0.1 -6,-1.8 -7.1,-4.2l-6.9,-13.5c-1.2,-2.4 -2.3,-4.3 -2.5,-4.3zm23.1,94.8c44.8,0 81.3,36.3 81.3,81.3c0,44.9 -36.5,81.3 -81.3,81.3c-44.9,0 -81.3,-36.4 -81.3,-81.3c0,-45 36.3,-81.3 81.3,-81.3zm0,28.8c-29.1,0 -52.5,23.5 -52.5,52.6c0,28.9 23.4,52.5 52.5,52.5c29,0 52.5,-23.5 52.5,-52.5c0,-29.1 -23.5,-52.6 -52.5,-52.6z"/>
  </g>
 </g>
</svg>