<?xml version="1.0" encoding="UTF-8" standalone="no"?>
<!DOCTYPE svg PUBLIC "-//W3C//DTD SVG 1.1//EN"
"http://www.w3.org/Graphics/SVG/1.1/DTD/svg11.dtd">


<!-- Page 19 -->
<svg x="0" y="0" width="1564" height="1564" viewBox="0 0 1564 1564" version="1.1" xmlns="http://www.w3.org/2000/svg" xmlns:xlink="http://www.w3.org/1999/xlink"
style="display: block;margin-left: auto;margin-right: auto;">
<defs>
<clipPath id="c_19"><path d="M0,0H1564V1564H0Z" /></clipPath>
<clipPath id="c0_19"><path d="M314,1564.4V930.7h936.5v633.7Z" /></clipPath>
<clipPath id="c1_19"><path d="M490.8,872.9V290h582.9V872.9Z" /></clipPath>

<style type="text/css"><![CDATA[

.g0_19{
fill: #7BADF4;
}
.g1_19{
fill: #FFFFFF;
}

]]></style>

</defs>
<g clip-path="url(#c_19)">
<path d="M0,0
L0,1564
L1564,1564
L1564,0 Z " 
fill="#FFFFFF" stroke="none" />
<path d="M0,0H1564.4V1564.4H0Z" class="g0_19" />
<g clip-path="url(#c0_19)">
<path d="M734.5,932.2H830c120.1,0,181.1,0,245.9,20.5c70.9,25.8,126.7,81.7,152.5,152.6C1249,1170.1,1249,1231,1249,1353v154.4c0,120.1,0,181.1,-20.6,245.9c-25.8,70.9,-81.6,126.7,-152.5,152.5c-64.8,20.6,-125.8,20.6,-247.8,20.6H734.5c-120.1,0,-181.1,0,-245.9,-20.6C417.7,1880,361.8,1824.2,336,1753.3c-20.5,-64.8,-20.5,-125.8,-20.5,-247.8V1351.2c0,-120.2,0,-181.1,20.5,-245.9c25.8,-70.9,81.7,-126.8,152.6,-152.6c64.8,-20.5,125.8,-20.5,247.7,-20.5Z" class="g1_19" />
</g>
<g clip-path="url(#c1_19)">
<path d="M987.2,376.4c113.2,113.2,113.2,296.8,0,410c-113.2,113.2,-296.8,113.2,-410,0C464,673.2,464,489.6,577.2,376.4c113.2,-113.2,296.8,-113.2,410,0Z" class="g1_19" />
</g>

</g>
</svg>
