<svg width="1564" height="1564" xmlns="http://www.w3.org/2000/svg">
 <defs>
  <clipPath id="c_5">
   <path id="svg_1" d="m0,0l1564,0l0,1564l-1564,0l0,-1564z"/>
  </clipPath>
  <clipPath id="c0_5">
   <path id="svg_2" d="m101.1,1463.4l0,-1362.3l1362.3,0l0,1362.3l-1362.3,0z"/>
  </clipPath>
  <style type="text/css">
   <![CDATA[

.g0_5{
fill: #FFFFFF;
}
.g1_5{
fill: #EBEBEB;
}
.g2_5{
fill: #297AD1;
}
.g3_5{
fill: #5C95D5;
}
.g4_5{
fill: #6CAFFA;
}
.g5_5{
fill: #67A7EF;
}
.g6_5{
fill: #2060A5;
}
.g7_5{
fill: #256FBE;
}
.g8_5{
fill: #1E5896;
}

]]>
  </style>
 </defs>
 <g>
  <title>background</title>
  <rect fill="none" id="canvas_background" height="402" width="582" y="-1" x="-1"/>
 </g>
 <g>
  <title>Layer 1</title>
  <g id="svg_3" clip-path="url(#c_5)">
   <g id="svg_6" clip-path="url(#c0_5)">
    <path id="svg_7" class="g1_5" d="m1262.8,301.6c265.4,265.5 265.4,695.8 0,961.2c-265.4,265.4 -695.7,265.4 -961.2,0c-265.4,-265.4 -265.4,-695.7 0,-961.2c265.5,-265.4 695.8,-265.4 961.2,0z"/>
   </g>
   <path id="svg_8" class="g2_5" d="m782.2,782.2l-122.9,-245.7l245.8,0l-122.9,245.7z"/>
   <path id="svg_9" class="g3_5" d="m905.1,536.5l122.9,245.7l-245.8,0l122.9,-245.7z"/>
   <path id="svg_10" class="g4_5" d="m1028,782.2l122.9,245.8l-245.8,0l122.9,-245.8z"/>
   <path id="svg_11" class="g5_5" d="m905.1,1028l-122.9,-245.8l245.8,0l-122.9,245.8z"/>
   <path id="svg_12" class="g6_5" d="m659.3,1028l-122.8,-245.8l245.7,0l-122.9,245.8z"/>
   <path id="svg_13" class="g7_5" d="m659.3,536.5l122.9,245.7l-245.7,0l122.8,-245.7z"/>
   <path id="svg_14" class="g8_5" d="m536.5,782.2l122.8,245.8l-245.7,0l122.9,-245.8z"/>
  </g>
 </g>
</svg>