<svg width="1564" height="1564" xmlns="http://www.w3.org/2000/svg" xmlns:xlink="http://www.w3.org/1999/xlink">
 <defs>
  <clipPath id="c_8">
   <path id="svg_1" d="m0,0l1564,0l0,1564l-1564,0l0,-1564z"/>
  </clipPath>
  <clipPath id="c0_8">
   <path id="svg_2" d="m178.9,1392.4l0,-1081.6l1206.7,0l0,1081.6l-1206.7,0z"/>
  </clipPath>
  <style type="text/css">
   <![CDATA[

.g0_8{
fill: #FFFFFF;
}
.g1_8{
fill: #EBEBEB;
}

]]>
  </style>
 </defs>
 <defs>
  <path transform="scale(0.0010000000474974513,-0.0010000000474974513) " id="f0_5" d="m92,0l0,111l451,574l0,7l-437,0l0,141l639,0l0,-118l-434,-566l0,-8l450,0l0,-141l-669,0z"/>
  <path transform="scale(0.0010000000474974513,-0.0010000000474974513) " id="f0_2" d="m109,0l0,833l162,0l0,-833l-162,0zm244,962c0,0 -42,0 -72,28c0,0 -31,29 -31,68c0,0 0,41 31,69c0,0 30,29 72,29c0,0 42,0 72,-29c0,0 31,-28 31,-69c0,0 0,-39 -31,-68c0,0 -30,-28 -72,-28z"/>
  <path transform="scale(0.0010000000474974513,-0.0010000000474974513) " id="f0_4" d="m486,122c0,0 72,0 121,39c0,0 49,39 74,105c0,0 25,67 25,151c0,0 0,83 -24,148c0,0 -25,65 -74,103c0,0 -49,38 -122,38c0,0 -107,0 -162,-79c0,0 -56,-80 -56,-210c0,0 0,-132 56,-213c0,0 57,-82 162,-82zm-377,-433l0,1144l158,0l0,-135l14,0c0,0 15,26 41,60c0,0 26,35 74,60c0,0 47,26 124,26c0,0 101,0 180,-51c0,0 79,-51 125,-147c0,0 45,-96 45,-231c0,0 0,-135 -45,-231c0,0 -45,-97 -124,-149c0,0 -78,-50 -179,-50c0,0 -76,0 -124,24c0,0 -48,26 -75,60c0,0 -27,34 -42,61l-10,0l0,-441l-162,0z"/>
 </defs>
 <g>
  <title>background</title>
  <rect fill="none" id="canvas_background" height="402" width="582" y="-1" x="-1"/>
 </g>
 <g>
  <title>Layer 1</title>
  <g id="svg_3" clip-path="url(#c_8)">
   <path id="svg_6" class="g1_8" d="m270,236.3l1024.4,0c48,0 72.4,0 98.3,8.2c28.3,10.3 50.6,32.6 61,61c8.2,25.9 8.2,50.2 8.2,99l0,756.2c0,48 0,72.4 -8.2,98.3c-10.4,28.3 -32.7,50.6 -61,60.9c-25.9,8.2 -50.3,8.2 -99,8.2l-1023.7,0c-48,0 -72.4,0 -98.3,-8.2c-28.3,-10.3 -50.6,-32.6 -60.9,-60.9c-8.2,-25.9 -8.2,-50.3 -8.2,-99l0,-756.3c0,-48 0,-72.3 8.2,-98.2c10.3,-28.4 32.6,-50.7 60.9,-61c25.9,-8.2 50.3,-8.2 99,-8.2l-0.7,0z"/>
   <path id="svg_7" class="g0_8" d="m590.6,307.7l383.2,0c44.3,0 80.2,35.9 80.2,80.2c0,44.3 -35.9,80.2 -80.2,80.2l-383.2,0c-44.3,0 -80.2,-35.9 -80.2,-80.2c0,-44.3 35.9,-80.2 80.2,-80.2z"/>
   <g id="svg_8" clip-path="url(#c0_8)">
    <g id="svg_9" fill="#7BADF4">
     <use id="svg_10" transform="matrix(390,0,0,390,360.6,1067.9) " xlink:href="#f0_5"/>
     <use id="svg_11" transform="matrix(390,0,0,390,689.2,1067.9) " xlink:href="#f0_2"/>
     <use id="svg_12" transform="matrix(390,0,0,390,837.2,1067.9) " xlink:href="#f0_4"/>
    </g>
   </g>
  </g>
 </g>
</svg>