<svg width="1564" height="1564" xmlns="http://www.w3.org/2000/svg">
 <defs>
  <clipPath id="c_17">
   <path id="svg_1" d="m0,0l1564,0l0,1564l-1564,0l0,-1564z"/>
  </clipPath>
  <clipPath id="c0_17">
   <path id="svg_2" d="m101.1,1463.4l0,-1362.3l1362.3,0l0,1362.3l-1362.3,0z"/>
  </clipPath>
  <clipPath id="c1_17">
   <path id="svg_3" d="m593.7,970.8l0,-377.1l377.1,0l0,377.1l-377.1,0z"/>
  </clipPath>
  <style type="text/css">
   <![CDATA[

.g0_17{
fill: #FFFFFF;
}
.g1_17{
fill: #EBEBEB;
}
.g2_17{
fill: #ADADAD;
}

]]>
  </style>
 </defs>
 <g>
  <title>background</title>
  <rect fill="none" id="canvas_background" height="402" width="582" y="-1" x="-1"/>
 </g>
 <g>
  <title>Layer 1</title>
  <g id="svg_4" clip-path="url(#c_17)">
   <g id="svg_7" clip-path="url(#c0_17)">
    <path id="svg_8" class="g1_17" d="m1262.8,301.6c265.4,265.5 265.4,695.8 0,961.2c-265.4,265.4 -695.7,265.4 -961.2,0c-265.4,-265.4 -265.4,-695.7 0,-961.2c265.5,-265.4 695.8,-265.4 961.2,0z"/>
   </g>
   <g id="svg_9" clip-path="url(#c1_17)">
    <path id="svg_10" class="g2_17" d="m914.5,650c73,73 73,191.4 0,264.5c-73.1,73 -191.5,73 -264.5,0c-73.1,-73.1 -73.1,-191.5 0,-264.5c73,-73.1 191.4,-73.1 264.5,0z"/>
   </g>
  </g>
 </g>
</svg>