<svg width="1564" height="1564" xmlns="http://www.w3.org/2000/svg">
 <defs>
  <clipPath id="c_16">
   <path id="svg_1" d="m0,0l1564,0l0,1564l-1564,0l0,-1564z"/>
  </clipPath>
  <style type="text/css">
   <![CDATA[

.g0_16{
fill: #FFFFFF;
}
.g1_16{
fill: #EBEBEB;
}
.g2_16{
fill: #297AD1;
}
.g3_16{
fill: #5C95D5;
}
.g4_16{
fill: #6CAFFA;
}
.g5_16{
fill: #67A7EF;
}
.g6_16{
fill: #2060A5;
}
.g7_16{
fill: #256FBE;
}
.g8_16{
fill: #1E5896;
}

]]>
  </style>
 </defs>
 <g>
  <title>background</title>
  <rect fill="none" id="canvas_background" height="402" width="582" y="-1" x="-1"/>
 </g>
 <g>
  <title>Layer 1</title>
  <g id="svg_2" clip-path="url(#c_16)">
   <path id="svg_5" class="g1_16" d="m270,236.3l1024.4,0c48,0 72.4,0 98.3,8.2c28.3,10.3 50.6,32.6 61,61c8.2,25.9 8.2,50.2 8.2,99l0,756.2c0,48 0,72.4 -8.2,98.3c-10.4,28.3 -32.7,50.6 -61,60.9c-25.9,8.2 -50.3,8.2 -99,8.2l-1023.7,0c-48,0 -72.4,0 -98.3,-8.2c-28.3,-10.3 -50.6,-32.6 -60.9,-60.9c-8.2,-25.9 -8.2,-50.3 -8.2,-99l0,-756.3c0,-48 0,-72.3 8.2,-98.2c10.3,-28.4 32.6,-50.7 60.9,-61c25.9,-8.2 50.3,-8.2 99,-8.2l-0.7,0z"/>
   <path id="svg_6" class="g2_16" d="m1184.6,1114.7l-62.1,-124.2l124.2,0l-62.1,124.2z"/>
   <path id="svg_7" class="g3_16" d="m1246.7,990.5l62.1,124.2l-124.2,0l62.1,-124.2z"/>
   <path id="svg_8" class="g4_16" d="m1308.8,1114.7l62.1,124.2l-124.2,0l62.1,-124.2z"/>
   <path id="svg_9" class="g5_16" d="m1246.7,1238.9l-62.1,-124.2l124.2,0l-62.1,124.2z"/>
   <path id="svg_10" class="g6_16" d="m1122.5,1238.9l-62.1,-124.2l124.2,0l-62.1,124.2z"/>
   <path id="svg_11" class="g7_16" d="m1122.5,990.5l62.1,124.2l-124.2,0l62.1,-124.2z"/>
   <path id="svg_12" class="g8_16" d="m1060.4,1114.7l62.1,124.2l-124.2,0l62.1,-124.2z"/>
  </g>
 </g>
</svg>