<svg width="1564" height="1564" xmlns="http://www.w3.org/2000/svg">
 <defs>
  <clipPath id="c_2">
   <path id="svg_1" d="m0,0l1564,0l0,1564l-1564,0l0,-1564z"/>
  </clipPath>
  <clipPath id="c0_2">
   <path id="svg_2" d="m101.1,1463.4l0,-1362.3l1362.3,0l0,1362.3l-1362.3,0z"/>
  </clipPath>
  <style type="text/css">
   <![CDATA[

.g0_2{
fill: #FFFFFF;
}
.g1_2{
fill: #7BADF4;
}

]]>
  </style>
 </defs>
 <g>
  <title>background</title>
  <rect fill="none" id="canvas_background" height="402" width="582" y="-1" x="-1"/>
 </g>
 <g>
  <title>Layer 1</title>
  <g id="svg_3" clip-path="url(#c_2)">
   <g id="svg_6" clip-path="url(#c0_2)">
    <path id="svg_7" class="g1_2" d="m1262.8,301.6c265.4,265.5 265.4,695.8 0,961.2c-265.4,265.4 -695.7,265.4 -961.2,0c-265.4,-265.4 -265.4,-695.7 0,-961.2c265.5,-265.4 695.8,-265.4 961.2,0z"/>
   </g>
   <path id="svg_8" class="g0_2" d="m531.8,540.2l500.8,0c23.5,0 35.4,0 48.1,4c13.8,5 24.7,15.9 29.8,29.8c4,12.6 4,24.5 4,48.4l0,369.7c0,23.5 0,35.4 -4,48c-5.1,13.9 -16,24.8 -29.8,29.8c-12.7,4.1 -24.6,4.1 -48.4,4.1l-500.5,0c-23.5,0 -35.4,0 -48,-4.1c-13.9,-5 -24.8,-15.9 -29.8,-29.8c-4,-12.6 -4,-24.5 -4,-48.4l0,-369.7c0,-23.5 0,-35.4 4,-48c5,-13.9 15.9,-24.8 29.8,-29.8c12.6,-4 24.5,-4 48.4,-4l-0.4,0z"/>
   <path id="svg_9" class="g0_2" d="m506,490.5l-32.2,99.3l233.8,0l-32.2,-99.3l-169.4,0z"/>
  </g>
 </g>
</svg>