<svg width="1564" height="1564" xmlns="http://www.w3.org/2000/svg">
 <defs>
  <clipPath id="c_18">
   <path id="svg_1" d="m0,0l1564,0l0,1564l-1564,0l0,-1564z"/>
  </clipPath>
  <style type="text/css">
   <![CDATA[

.g0_18{
fill: #FFFFFF;
}
.g1_18{
fill: #ADADAD;
}
.g2_18{
fill: #EBEBEB;
}

]]>
  </style>
 </defs>
 <g>
  <title>background</title>
  <rect fill="none" id="canvas_background" height="402" width="582" y="-1" x="-1"/>
 </g>
 <g>
  <title>Layer 1</title>
  <g id="svg_2" clip-path="url(#c_18)">
   <path id="svg_5" class="g1_18" d="m555,409.2l448.8,0l0,-349l-448.8,0l0,349z"/>
   <path id="svg_6" class="g2_18" d="m654.3,364.5l250.2,0c59.7,0 90,0 122.2,10.2c35.2,12.8 62.9,40.6 75.7,75.8c10.2,32.2 10.2,62.5 10.2,123.1l0,722.5c0,59.7 0,90 -10.2,122.2c-12.8,35.2 -40.5,62.9 -75.7,75.8c-32.2,10.2 -62.5,10.2 -123.1,10.2l-249.3,0c-59.7,0 -90,0 -122.2,-10.2c-35.2,-12.9 -63,-40.6 -75.8,-75.8c-10.2,-32.2 -10.2,-62.5 -10.2,-123.1l0,-722.5c0,-59.7 0,-90 10.2,-122.2c12.8,-35.2 40.6,-63 75.8,-75.8c32.2,-10.2 62.5,-10.2 123.1,-10.2l-0.9,0z"/>
  </g>
 </g>
</svg>