
<svg x="0" y="0" width="1564" height="1564" viewBox="0 0 1564 1564" version="1.1" xmlns="http://www.w3.org/2000/svg" xmlns:xlink="http://www.w3.org/1999/xlink"
style="display: block;margin-left: auto;margin-right: auto;">
<defs>
<clipPath id="c_15"><path d="M0,0H1564V1564H0Z" /></clipPath>
<style type="text/css"><![CDATA[

.g0_15{
fill: #FFFFFF;
}
.g1_15{
fill: #EBEBEB;
}
.g2_15{
fill: #ADADAD;
}

]]></style>

</defs>
    
<path d="M270,287.1H1294.4c48,0,72.4,0,98.3,8.2c28.3,10.3,50.6,32.6,61,61c8.2,25.9,8.2,50.2,8.2,99v756.2c0,48,0,72.4,-8.2,98.3c-10.4,28.3,-32.7,50.6,-61,60.9c-25.9,8.2,-50.3,8.2,-99,8.2H270c-48,0,-72.4,0,-98.3,-8.2c-28.3,-10.3,-50.6,-32.6,-60.9,-60.9c-8.2,-25.9,-8.2,-50.3,-8.2,-99V454.5c0,-48,0,-72.3,8.2,-98.2c10.3,-28.4,32.6,-50.7,60.9,-61c25.9,-8.2,50.3,-8.2,99,-8.2Z" class="g1_15" />
<path d="M217.2,185.5L151.4,388.7H629.5L563.7,185.5H217.2Z" class="g1_15" />
<path d="M479.8,607.1c-9.1,0,-16.5,7.3,-16.5,16.4v502.9c0,9.1,7.4,16.4,16.5,16.4h604.9c9.1,0,16.4,-7.3,16.4,-16.4v-503c0,-9,-7.3,-16.3,-16.4,-16.3H479.8Zm34.7,32.7h47.8v47.8H514.5V639.8Zm121.9,0h47.9v47.8H636.4V639.8Zm122,0h47.8v47.8H758.4V639.8Zm121.9,0h47.9v47.8H880.3V639.8Zm122,0h47.8v47.8h-47.8V639.8ZM514.5,720.3h535.6v309.2H514.5V720.3Zm0,341.9h47.8V1110H514.5v-47.8Zm121.9,0h47.9V1110H636.4v-47.8Zm122,0h47.8V1110H758.4v-47.8Zm121.9,0h47.9V1110H880.3v-47.8Zm122,0h47.8V1110h-47.8v-47.8Z" class="g2_15" />

</svg>
