<svg width="1564" height="1564" xmlns="http://www.w3.org/2000/svg">
 <defs>
  <clipPath id="c_13">
   <path id="svg_1" d="m0,0l1564,0l0,1564l-1564,0l0,-1564z"/>
  </clipPath>
  <style type="text/css">
   <![CDATA[

.g0_13{
fill: #FFFFFF;
}
.g1_13{
fill: #EBEBEB;
}
.g2_13{
fill: #ADADAD;
}

]]>
  </style>
 </defs>
 <g>
  <title>background</title>
  <rect fill="none" id="canvas_background" height="402" width="582" y="-1" x="-1"/>
 </g>
 <g>
  <title>Layer 1</title>
  <g id="svg_2" clip-path="url(#c_13)">
   <path id="svg_5" class="g1_13" d="m270,287.1l1024.4,0c48,0 72.4,0 98.3,8.2c28.3,10.3 50.6,32.6 61,61c8.2,25.9 8.2,50.2 8.2,99l0,756.2c0,48 0,72.4 -8.2,98.3c-10.4,28.3 -32.7,50.6 -61,60.9c-25.9,8.2 -50.3,8.2 -99,8.2l-1023.7,0c-48,0 -72.4,0 -98.3,-8.2c-28.3,-10.3 -50.6,-32.6 -60.9,-60.9c-8.2,-25.9 -8.2,-50.3 -8.2,-99l0,-756.3c0,-48 0,-72.3 8.2,-98.2c10.3,-28.4 32.6,-50.7 60.9,-61c25.9,-8.2 50.3,-8.2 99,-8.2l-0.7,0z"/>
   <path id="svg_6" class="g2_13" d="m680.7,616.9c-10.1,0 -15.2,0 -20.6,1.7c-5.9,2.2 -10.5,6.8 -12.7,12.7c-1.7,5.5 -1.7,10.6 -1.7,20.6l0,7.9l-104.6,0c-2.5,-3.9 -6.3,-6.9 -10.7,-8.5c-5.4,-1.8 -10.5,-1.8 -20.6,-1.8l-28.6,0c-10.1,0 -15.2,0 -20.6,1.8c-5.1,1.8 -9.1,5.5 -11.5,10.2c-2.7,0.5 -5.3,1 -8,1.9c-12.4,4.5 -22.2,14.3 -26.7,26.8c-3.6,11.3 -3.6,22 -3.6,43.1l0,333.4c0,21.4 0,32 3.6,43.4c4.5,12.4 14.3,22.2 26.7,26.7c11.4,3.6 22.1,3.7 43.2,3.7l595.6,0c21.3,0 32,-0.1 43.4,-3.7c12.4,-4.5 22.3,-14.3 26.8,-26.7c3.6,-11.4 3.6,-22 3.6,-43.1l0,-333.4c0,-21.4 0,-32.1 -3.6,-43.4c-4.5,-12.5 -14.4,-22.3 -26.8,-26.8c-11.4,-3.6 -22,-3.6 -43.1,-3.6l-161.4,0l0,-7.7c0,-10.2 0,-15.3 -1.8,-20.8c-2.1,-5.9 -6.8,-10.5 -12.7,-12.7c-5.4,-1.7 -10.5,-1.7 -20.5,-1.7l-203.1,0zm101.5,129.1c39.5,0 78.9,15 109,45.1c60.2,60.2 60.2,157.8 0,218c-60.2,60.2 -157.8,60.2 -218,0c-60.2,-60.2 -60.2,-157.8 0,-218c30.1,-30.1 69.6,-45.1 109,-45.1zm0,30.3c-31.7,0 -63.4,12.1 -87.6,36.3c-48.4,48.4 -48.4,126.9 0,175.2c48.4,48.4 126.8,48.4 175.2,0c48.4,-48.3 48.4,-126.8 0,-175.2c-24.2,-24.2 -55.9,-36.3 -87.6,-36.3z"/>
   <path id="svg_7" class="g1_13" d="m217.2,185.5l-65.8,203.2l478.1,0l-65.8,-203.2l-346.5,0z"/>
  </g>
 </g>
</svg>