<svg width="1564" height="1564" xmlns="http://www.w3.org/2000/svg">
 <defs>
  <clipPath id="c_11">
   <path id="svg_1" d="m0,0l1564,0l0,1564l-1564,0l0,-1564z"/>
  </clipPath>
  <style type="text/css">
   <![CDATA[

.g0_11{
fill: #FFFFFF;
}
.g1_11{
fill: #EBEBEB;
}
.g2_11{
fill: #ADADAD;
}

]]>
  </style>
 </defs>
 <g>
  <title>background</title>
  <rect fill="none" id="canvas_background" height="402" width="582" y="-1" x="-1"/>
 </g>
 <g>
  <title>Layer 1</title>
  <g id="svg_2" clip-path="url(#c_11)">
   <path id="svg_5" class="g1_11" d="m270,287.1l1024.4,0c48,0 72.4,0 98.3,8.2c28.3,10.3 50.6,32.6 61,61c8.2,25.9 8.2,50.2 8.2,99l0,756.2c0,48 0,72.4 -8.2,98.3c-10.4,28.3 -32.7,50.6 -61,60.9c-25.9,8.2 -50.3,8.2 -99,8.2l-1023.7,0c-48,0 -72.4,0 -98.3,-8.2c-28.3,-10.3 -50.6,-32.6 -60.9,-60.9c-8.2,-25.9 -8.2,-50.3 -8.2,-99l0,-756.3c0,-48 0,-72.3 8.2,-98.2c10.3,-28.4 32.6,-50.7 60.9,-61c25.9,-8.2 50.3,-8.2 99,-8.2l-0.7,0z"/>
   <path id="svg_6" class="g1_11" d="m217.2,185.5l-65.8,203.2l478.1,0l-65.8,-203.2l-346.5,0z"/>
   <path id="svg_7" class="g2_11" d="m1015.9,951.7c0,-13.2 -5,-26.4 -15.1,-36.4c-20.1,-20.2 -52.8,-20.1 -72.9,0l-94.2,94.2l0,-393.3c0,-28.4 -23,-51.5 -51.5,-51.5c-28.4,0 -51.5,23.1 -51.5,51.5l0,393.3l-94.2,-94.2c-20.1,-20.2 -52.7,-20.1 -72.9,0c-10,10 -15,23.2 -15,36.4c0,13.2 5,26.4 15,36.4l182.2,182.1c10,10.1 23.2,15.1 36.4,15.1c13.2,0 26.4,-5 36.5,-15.1l182.1,-182.1c10.1,-10 15.1,-23.2 15.1,-36.4z"/>
  </g>
 </g>
</svg>