<svg width="1564" height="1564" xmlns="http://www.w3.org/2000/svg">
 <defs>
  <clipPath id="c_10">
   <path id="svg_1" d="m0,0l1564,0l0,1564l-1564,0l0,-1564z"/>
  </clipPath>
  <style type="text/css">
   <![CDATA[

.g0_10{
fill: #FFFFFF;
}
.g1_10{
fill: #EBEBEB;
}
.g2_10{
fill: #ADADAD;
}

]]>
  </style>
 </defs>
 <g>
  <title>background</title>
  <rect fill="none" id="canvas_background" height="402" width="582" y="-1" x="-1"/>
 </g>
 <g>
  <title>Layer 1</title>
  <g id="svg_2" clip-path="url(#c_10)">
   <path id="svg_5" class="g1_10" d="m270,287.1l1024.4,0c48,0 72.4,0 98.3,8.2c28.3,10.3 50.6,32.6 61,61c8.2,25.9 8.2,50.2 8.2,99l0,756.2c0,48 0,72.4 -8.2,98.3c-10.4,28.3 -32.7,50.6 -61,60.9c-25.9,8.2 -50.3,8.2 -99,8.2l-1023.7,0c-48,0 -72.4,0 -98.3,-8.2c-28.3,-10.3 -50.6,-32.6 -60.9,-60.9c-8.2,-25.9 -8.2,-50.3 -8.2,-99l0,-756.3c0,-48 0,-72.3 8.2,-98.2c10.3,-28.4 32.6,-50.7 60.9,-61c25.9,-8.2 50.3,-8.2 99,-8.2l-0.7,0z"/>
   <path id="svg_6" class="g1_10" d="m217.2,185.5l-65.8,203.2l478.1,0l-65.8,-203.2l-346.5,0z"/>
   <path id="svg_7" class="g2_10" d="m558.3,636.4l447.8,0c21,0 31.6,0 42.9,3.6c12.4,4.5 22.2,14.3 26.7,26.6c3.6,11.4 3.6,22 3.6,43.3l0,330.6c0,20.9 0,31.6 -3.6,42.9c-4.5,12.4 -14.3,22.1 -26.7,26.6c-11.3,3.6 -21.9,3.6 -43.2,3.6l-447.5,0c-20.9,0 -31.6,0 -42.9,-3.6c-12.4,-4.5 -22.1,-14.2 -26.6,-26.6c-3.6,-11.3 -3.6,-22 -3.6,-43.3l0,-330.5c0,-21 0,-31.6 3.6,-43c4.5,-12.3 14.2,-22.1 26.6,-26.6c11.3,-3.6 22,-3.6 43.3,-3.6l-0.4,0z"/>
   <path id="svg_8" class="g1_10" d="m698.5,667.6l167.5,0c19.3,0 35,15.7 35,35.1c0,19.3 -15.7,35 -35,35l-167.5,0c-19.4,0 -35.1,-15.7 -35.1,-35c0,-19.4 15.7,-35.1 35.1,-35.1z"/>
  </g>
 </g>
</svg>