<svg width="1564" height="1564" xmlns="http://www.w3.org/2000/svg">
 <defs>
  <clipPath id="c_12">
   <path id="svg_1" d="m0,0l1564,0l0,1564l-1564,0l0,-1564z"/>
  </clipPath>
  <style type="text/css">
   <![CDATA[

.g0_12{
fill: #FFFFFF;
}
.g1_12{
fill: #EBEBEB;
}
.g2_12{
fill: #ADADAD;
}

]]>
  </style>
 </defs>
 <g>
  <title>background</title>
  <rect fill="none" id="canvas_background" height="402" width="582" y="-1" x="-1"/>
 </g>
 <g>
  <title>Layer 1</title>
  <g id="svg_2" clip-path="url(#c_12)">
   <path id="svg_5" class="g1_12" d="m270,287.1l1024.4,0c48,0 72.4,0 98.3,8.2c28.3,10.3 50.6,32.6 61,61c8.2,25.9 8.2,50.2 8.2,99l0,756.2c0,48 0,72.4 -8.2,98.3c-10.4,28.3 -32.7,50.6 -61,60.9c-25.9,8.2 -50.3,8.2 -99,8.2l-1023.7,0c-48,0 -72.4,0 -98.3,-8.2c-28.3,-10.3 -50.6,-32.6 -60.9,-60.9c-8.2,-25.9 -8.2,-50.3 -8.2,-99l0,-756.3c0,-48 0,-72.3 8.2,-98.2c10.3,-28.4 32.6,-50.7 60.9,-61c25.9,-8.2 50.3,-8.2 99,-8.2l-0.7,0z"/>
   <path id="svg_6" class="g1_12" d="m217.2,185.5l-65.8,203.2l478.1,0l-65.8,-203.2l-346.5,0z"/>
   <path id="svg_7" class="g2_12" d="m608.6,562.3l347.2,0c21.9,0 33.1,0 44.9,3.7c12.9,4.7 23.1,14.9 27.8,27.9c3.8,11.8 3.8,22.9 3.8,45.2l0,472.1c0,21.9 0,33 -3.8,44.9c-4.7,12.9 -14.9,23.1 -27.8,27.8c-11.8,3.7 -23,3.7 -45.2,3.7l-346.9,0c-21.9,0 -33,0 -44.8,-3.7c-13,-4.7 -23.2,-14.9 -27.9,-27.8c-3.7,-11.9 -3.7,-23 -3.7,-45.3l0,-472.1c0,-21.9 0,-33 3.7,-44.8c4.7,-13 14.9,-23.2 27.9,-27.9c11.8,-3.7 22.9,-3.7 45.2,-3.7l-0.4,0z"/>
   <path id="svg_8" class="g1_12" d="m1032.3,695.7l0,-133.4l-133.5,0l133.5,133.4z"/>
  </g>
 </g>
</svg>