<svg width="1564" height="1564" xmlns="http://www.w3.org/2000/svg">
 <defs>
  <clipPath id="c_14">
   <path id="svg_1" d="m0,0l1564,0l0,1564l-1564,0l0,-1564z"/>
  </clipPath>
  <clipPath id="c0_14">
   <path id="svg_2" d="m494.4,1179.9l0,-609.9l575.7,0l0,609.9l-575.7,0z"/>
  </clipPath>
  <style type="text/css">
   <![CDATA[

.g0_14{
fill: #FFFFFF;
}
.g1_14{
fill: #EBEBEB;
}
.g2_14{
fill: #ADADAD;
}

]]>
  </style>
 </defs>
 <g>
  <title>background</title>
  <rect fill="none" id="canvas_background" height="402" width="582" y="-1" x="-1"/>
 </g>
 <g>
  <title>Layer 1</title>
  <g id="svg_3" clip-path="url(#c_14)">
   <path id="svg_6" class="g1_14" d="m270,287.1l1024.4,0c48,0 72.4,0 98.3,8.2c28.3,10.3 50.6,32.6 61,61c8.2,25.9 8.2,50.2 8.2,99l0,756.2c0,48 0,72.4 -8.2,98.3c-10.4,28.3 -32.7,50.6 -61,60.9c-25.9,8.2 -50.3,8.2 -99,8.2l-1023.7,0c-48,0 -72.4,0 -98.3,-8.2c-28.3,-10.3 -50.6,-32.6 -60.9,-60.9c-8.2,-25.9 -8.2,-50.3 -8.2,-99l0,-756.3c0,-48 0,-72.3 8.2,-98.2c10.3,-28.4 32.6,-50.7 60.9,-61c25.9,-8.2 50.3,-8.2 99,-8.2l-0.7,0z"/>
   <path id="svg_7" class="g1_14" d="m217.2,185.5l-65.8,203.2l478.1,0l-65.8,-203.2l-346.5,0z"/>
   <g id="svg_8" clip-path="url(#c0_14)">
    <path id="svg_9" class="g2_14" d="m781.9,571.6c-158,0.4 -286,128.5 -286,286.6c0,0 -0.7,118.3 16.4,143.4c11.7,17.1 24.1,27.2 30.7,32l-1.2,10.3c-0.8,7.4 1,14.8 5.1,20.9l60,89.7c7.2,10.9 20.5,16.1 33.2,13l6.9,-1.7c5,9.3 15.7,14.5 26.4,11.9l29.2,-7.1c12.7,-3.1 20.5,-15.8 17.4,-28.5l-59.6,-246.1c-3,-12.7 -15.8,-20.5 -28.5,-17.4l-29.1,7c-10.7,2.6 -17.9,12.1 -18.1,22.6l-6.9,1.7c-12.7,3.1 -22.1,13.7 -23.6,26.7l-5.2,44.9c-7.8,-5.4 -15.4,-15.8 -17.5,-28.6c-6.5,-38.6 -5.7,-94.5 -5.7,-94.5c0,-48.3 13.3,-93.5 36.5,-132.1c10.5,1.3 29.6,-0.4 50,-21.6c30.8,-32.1 90.4,-67 170.8,-67c81.9,0 139.5,34.9 170.4,67c19.8,20.6 38.2,22.7 48.7,21.6c23.2,38.6 36.5,83.8 36.5,132.1c0,0 0.8,55.9 -5.7,94.5c-2.1,12.8 -9.7,23.2 -17.6,28.6l-5.1,-44.9c-1.5,-13 -10.9,-23.6 -23.6,-26.7l-7,-1.7c-0.1,-10.5 -7.3,-20 -18,-22.6l-29.2,-7c-12.6,-3.1 -25.4,4.7 -28.5,17.4l-59.5,246.1c-3.1,12.7 4.7,25.4 17.4,28.5l29.2,7.1c10.7,2.6 21.4,-2.6 26.3,-11.9l7,1.7c12.7,3.1 26,-2.1 33.2,-13l60,-89.7c4.1,-6.1 5.9,-13.5 5,-20.9l-1.2,-10.3c6.7,-4.8 19,-14.9 30.7,-32c17.2,-25.1 16.4,-143.4 16.4,-143.4c0,-158.1 -127.9,-286.3 -285.9,-286.6c-0.2,0 -0.3,0 -0.4,0c-0.1,0 -0.2,0 -0.3,0z"/>
   </g>
  </g>
 </g>
</svg>