<svg width="1564" height="1564" xmlns="http://www.w3.org/2000/svg">
 <defs>
  <clipPath id="c_3">
   <path id="svg_1" d="m0,0l1564,0l0,1564l-1564,0l0,-1564z"/>
  </clipPath>
  <clipPath id="c0_3">
   <path id="svg_2" d="m101.1,1463.4l0,-1362.3l1362.3,0l0,1362.3l-1362.3,0z"/>
  </clipPath>
  <style type="text/css">
   <![CDATA[

.g0_3{
fill: #FFFFFF;
}
.g1_3{
fill: #7BADF4;
}

]]>
  </style>
 </defs>
 <g>
  <title>background</title>
  <rect fill="none" id="canvas_background" height="402" width="582" y="-1" x="-1"/>
 </g>
 <g>
  <title>Layer 1</title>
  <g id="svg_3" clip-path="url(#c_3)">
   <g id="svg_6" clip-path="url(#c0_3)">
    <path id="svg_7" class="g1_3" d="m1262.8,301.6c265.4,265.5 265.4,695.8 0,961.2c-265.4,265.4 -695.7,265.4 -961.2,0c-265.4,-265.4 -265.4,-695.7 0,-961.2c265.5,-265.4 695.8,-265.4 961.2,0z"/>
   </g>
   <path id="svg_8" class="g0_3" d="m846.5,448.1c-3.3,-0.4 -5.5,1.1 -7.8,5.3c-9.1,17 -19.2,33.7 -28.7,50.5c-3.6,6.2 -7.6,9.3 -15.8,8.5c-14.3,-1.4 -28.9,-1.3 -43.3,1.2c-6.4,1.1 -10.1,-0.6 -13.6,-6.1c-10.9,-16.9 -22.5,-33.4 -33.4,-50.3c-3,-4.7 -5.4,-5.3 -10.5,-3c-32.9,15.2 -65.9,30.3 -99.1,44.8c-6,2.7 -6,5.5 -4.4,11c5.4,18.9 10,38.1 15.4,57.1c1.8,6.2 1,10.3 -4.1,14.5c-11.5,9.4 -21.9,20.2 -30.5,32.3c-4.6,6.4 -9.4,6.9 -15.9,5.6c-18.9,-3.9 -38,-7.3 -56.9,-11.6c-6.1,-1.4 -8.7,-0.1 -10.8,5.7c-12.4,33.6 -25,67.2 -37.9,100.7c-2.1,5.6 -1.3,8.4 4.3,11.4c17,9.2 33.6,19.2 50.4,28.8c6.3,3.5 9.2,7.5 8.3,15.8c-1.6,14.3 -0.8,28.9 1.6,43.2c1.1,6.6 -0.9,10.2 -6.3,13.7c-17,10.8 -33.4,22.5 -50.3,33.3c-4.8,3.1 -5.2,5.6 -2.9,10.6c15.2,32.9 30.2,65.8 44.8,99c2.7,6.1 5.4,6 10.9,4.5c19,-5.4 38.2,-10.3 57.3,-15.3c2.8,-0.8 5.7,-1.2 8.6,-1.8c1.4,1.7 2.6,3.1 3.8,4.5c10.2,11.4 21.2,22.1 33.5,30.9c6.7,4.8 7.8,9.7 6.4,16.8c-4,18.9 -7.4,37.9 -11.7,56.8c-1.4,6.1 -0.1,8.7 5.7,10.9c33.6,12.4 67.2,25 100.7,37.9c5.6,2.1 8.4,1.3 11.4,-4.3c9.2,-17 19.2,-33.6 28.7,-50.4c3.6,-6.2 7.5,-9.4 15.8,-8.5c13.9,1.4 28.3,1.6 42.1,-1.1c8.5,-1.7 12.1,1.8 16,7.8c10.6,16.2 21.7,32.1 32.2,48.4c3,4.7 5.4,5.4 10.5,3c32.9,-15.2 65.9,-30.2 99,-44.8c6,-2.6 6.2,-5.4 4.6,-10.9c-5.4,-19 -10,-38.2 -15.4,-57.2c-1.8,-6.1 -1.1,-10.2 4,-14.4c11.6,-9.4 21.9,-20.2 30.6,-32.3c4.5,-6.3 9.2,-7.1 15.7,-5.7c19,3.9 38.1,7.3 56.9,11.6c6.1,1.3 8.8,0.2 10.9,-5.6c12.4,-33.6 25.1,-67.2 37.9,-100.7c2.1,-5.6 1.4,-8.5 -4.2,-11.5c-17,-9.2 -33.6,-19.1 -50.5,-28.7c-6.2,-3.5 -9.2,-7.5 -8.3,-15.8c1.6,-14.4 0.8,-29 -1.6,-43.3c-1,-6.5 0.9,-10.1 6.3,-13.6c17,-10.9 33.4,-22.5 50.3,-33.4c4.8,-3 5.3,-5.5 3,-10.5c-15.2,-32.9 -30.2,-65.9 -44.8,-99c-2.7,-6.1 -5.4,-6.1 -10.9,-4.5c-19.4,5.5 -38.9,10.3 -58.3,15.7c-5.3,1.5 -8.8,0.7 -12.4,-3.8c-9.4,-11.6 -20.6,-21.6 -32.6,-30.3c-6.6,-4.7 -7.8,-9.6 -6.3,-16.7c3.9,-19 7.3,-38 11.6,-56.9c1.4,-6 0.1,-8.7 -5.6,-10.8c-33.7,-12.4 -67.2,-25.1 -100.7,-37.9c-1.4,-0.5 -2.6,-0.9 -3.7,-1.1zm-64.3,180.3c84.9,0 153.8,68.9 153.8,153.8c0,85 -68.9,153.8 -153.8,153.8c-84.9,0 -153.8,-68.8 -153.8,-153.8c0,-84.9 68.9,-153.8 153.8,-153.8z"/>
  </g>
 </g>
</svg>