<svg width="1564" height="1564" xmlns="http://www.w3.org/2000/svg">
 <defs>
  <clipPath id="c_4">
   <path id="svg_1" d="m0,0l1564,0l0,1564l-1564,0l0,-1564z"/>
  </clipPath>
  <style type="text/css">
   <![CDATA[

.g0_4{
fill: #FFFFFF;
}
.g1_4{
fill: #EBEBEB;
}
.g2_4{
fill: #297AD1;
}
.g3_4{
fill: #5C95D5;
}
.g4_4{
fill: #6CAFFA;
}
.g5_4{
fill: #67A7EF;
}
.g6_4{
fill: #2060A5;
}
.g7_4{
fill: #256FBE;
}
.g8_4{
fill: #1E5896;
}

]]>
  </style>
 </defs>
 <g>
  <title>background</title>
  <rect fill="none" id="canvas_background" height="402" width="582" y="-1" x="-1"/>
 </g>
 <g>
  <title>Layer 1</title>
  <g id="svg_2" clip-path="url(#c_4)">
   <path id="svg_5" class="g1_4" d="m270,236.3l1024.4,0c48,0 72.4,0 98.3,8.2c28.3,10.3 50.6,32.6 61,61c8.2,25.9 8.2,50.2 8.2,99l0,756.2c0,48 0,72.4 -8.2,98.3c-10.4,28.3 -32.7,50.6 -61,60.9c-25.9,8.2 -50.3,8.2 -99,8.2l-1023.7,0c-48,0 -72.4,0 -98.3,-8.2c-28.3,-10.3 -50.6,-32.6 -60.9,-60.9c-8.2,-25.9 -8.2,-50.3 -8.2,-99l0,-756.3c0,-48 0,-72.3 8.2,-98.2c10.3,-28.4 32.6,-50.7 60.9,-61c25.9,-8.2 50.3,-8.2 99,-8.2l-0.7,0z"/>
   <path id="svg_6" class="g0_4" d="m590.6,307.7l383.2,0c44.3,0 80.2,35.9 80.2,80.2c0,44.3 -35.9,80.2 -80.2,80.2l-383.2,0c-44.3,0 -80.2,-35.9 -80.2,-80.2c0,-44.3 35.9,-80.2 80.2,-80.2z"/>
   <path id="svg_7" class="g2_4" d="m782.2,884.4l-96.9,-193.8l193.9,0l-97,193.8z"/>
   <path id="svg_8" class="g3_4" d="m879.2,690.6l96.9,193.8l-193.9,0l97,-193.8z"/>
   <path id="svg_9" class="g4_4" d="m976.1,884.4l96.9,193.9l-193.8,0l96.9,-193.9z"/>
   <path id="svg_10" class="g5_4" d="m879.2,1078.3l-97,-193.9l193.9,0l-96.9,193.9z"/>
   <path id="svg_11" class="g6_4" d="m685.3,1078.3l-96.9,-193.9l193.8,0l-96.9,193.9z"/>
   <path id="svg_12" class="g7_4" d="m685.3,690.6l96.9,193.8l-193.8,0l96.9,-193.8z"/>
   <path id="svg_13" class="g8_4" d="m588.4,884.4l96.9,193.9l-193.9,0l97,-193.9z"/>
  </g>
 </g>
</svg>