<svg width="1564" height="1564" xmlns="http://www.w3.org/2000/svg" xmlns:xlink="http://www.w3.org/1999/xlink">
 <defs>
  <clipPath id="c_6">
   <path id="svg_1" d="m0,0l1564,0l0,1564l-1564,0l0,-1564z"/>
  </clipPath>
  <clipPath id="c0_6">
   <path id="svg_2" d="m101.1,1463.4l0,-1362.3l1362.3,0l0,1362.3l-1362.3,0z"/>
  </clipPath>
  <clipPath id="c1_6">
   <path id="svg_3" d="m306.4,1545.2l0,-1526l951.6,0l0,1526l-951.6,0z"/>
  </clipPath>
  <style type="text/css">
   <![CDATA[

.g0_6{
fill: #FFFFFF;
}
.g1_6{
fill: #EBEBEB;
}

]]>
  </style>
 </defs>
 <defs>
  <path transform="scale(0.0010000000474974513,-0.0010000000474974513) " id="f0_6" d="m368,-9c0,0 -44,0 -76,30c0,0 -32,32 -32,77c0,0 0,45 32,76c0,0 32,32 76,32c0,0 45,0 77,-32c0,0 32,-31 32,-76c0,0 0,-45 -32,-77c0,0 -32,-30 -77,-30zm-82,329l0,10c0,0 1,101 20,160c0,0 20,60 56,97c0,0 36,36 86,67c0,0 48,31 82,74c0,0 33,43 33,104c0,0 0,72 -49,115c0,0 -49,43 -118,43c0,0 -62,0 -114,-40c0,0 -53,-40 -57,-126l-165,0c0,0 3,98 49,165c0,0 46,68 121,103c0,0 75,34 166,34c0,0 100,0 174,-37c0,0 75,-37 117,-103c0,0 42,-67 42,-155c0,0 0,-92 -42,-156c0,0 -42,-64 -115,-108c0,0 -69,-42 -99,-93c0,0 -30,-50 -31,-144l0,-10l-156,0z"/>
 </defs>
 <g>
  <title>background</title>
  <rect fill="none" id="canvas_background" height="402" width="582" y="-1" x="-1"/>
 </g>
 <g>
  <title>Layer 1</title>
  <g id="svg_4" clip-path="url(#c_6)">
   <g id="svg_7" clip-path="url(#c0_6)">
    <path id="svg_8" class="g1_6" d="m1262.8,301.6c265.4,265.5 265.4,695.8 0,961.2c-265.4,265.4 -695.7,265.4 -961.2,0c-265.4,-265.4 -265.4,-695.7 0,-961.2c265.5,-265.4 695.8,-265.4 961.2,0z"/>
   </g>
   <g id="svg_9" clip-path="url(#c1_6)">
    <g id="svg_10" fill="#7BADF4">
     <use id="svg_11" transform="matrix(550,0,0,550,560.7,1087.8) " xlink:href="#f0_6"/>
    </g>
   </g>
  </g>
 </g>
</svg>