<svg width="1564" height="1564" xmlns="http://www.w3.org/2000/svg">
 <defs>
  <clipPath id="c_5">
   <path id="svg_1" d="m0,0l1564,0l0,1564l-1564,0l0,-1564z"/>
  </clipPath>
  <style type="text/css">
   <![CDATA[

.g0_5{
fill: #FFFFFF;
}
.g1_5{
fill: #474747;
}

]]>
  </style>
 </defs>
 <g>
  <title>background</title>
  <rect fill="none" id="canvas_background" height="402" width="582" y="-1" x="-1"/>
 </g>
 <g>
  <title>Layer 1</title>
  <g id="svg_2" clip-path="url(#c_5)">
   <path id="svg_5" class="g1_5" d="m599.1,365c-13,0 -26.1,5 -36,15c-19.9,19.9 -19.9,52.1 0,72l330.1,330.2l-330.1,330.2c-19.9,19.9 -19.9,52.2 0,72.1c19.9,19.9 52.2,19.9 72.1,0l366.2,-366.2c2.5,-2.5 4.6,-5.2 6.5,-8.1c5.6,-8.4 8.4,-18.2 8.4,-28c0,-3.2 -0.3,-6.5 -0.9,-9.7c-1.9,-9.7 -6.6,-18.9 -14,-26.3l-366.2,-366.2c-10,-10 -23,-15 -36.1,-15z"/>
  </g>
 </g>
</svg>