<svg width="1564" height="1564" xmlns="http://www.w3.org/2000/svg">
 <defs>
  <clipPath id="c_12">
   <path id="svg_1" d="m0,0l1564,0l0,1564l-1564,0l0,-1564z"/>
  </clipPath>
  <style type="text/css">
   <![CDATA[

.g0_12{
fill: #FFFFFF;
}
.g1_12{
fill: #7BADF4;
}

]]>
  </style>
 </defs>
 <g>
  <title>background</title>
  <rect fill="none" id="canvas_background" height="402" width="582" y="-1" x="-1"/>
 </g>
 <g>
  <title>Layer 1</title>
  <g id="svg_2" clip-path="url(#c_12)">
   <path id="svg_5" class="g1_12" d="m389.2,231.4l786,0c45.3,0 68.2,0 92.6,7.7c26.8,9.8 47.8,30.8 57.5,57.5c7.7,24.4 7.7,47.4 7.7,93.3l0,785.3c0,45.3 0,68.2 -7.7,92.6c-9.7,26.8 -30.7,47.8 -57.5,57.5c-24.4,7.7 -47.3,7.7 -93.3,7.7l-785.3,0c-45.2,0 -68.2,0 -92.6,-7.7c-26.7,-9.7 -47.7,-30.7 -57.5,-57.5c-7.7,-24.4 -7.7,-47.3 -7.7,-93.3l0,-785.3c0,-45.2 0,-68.2 7.7,-92.6c9.8,-26.7 30.8,-47.7 57.5,-57.5c24.4,-7.7 47.4,-7.7 93.3,-7.7l-0.7,0z"/>
  </g>
 </g>
</svg>