<svg width="1564" height="1564" xmlns="http://www.w3.org/2000/svg">
 <defs>
  <clipPath id="c_7">
   <path id="svg_1" d="m0,0l1564,0l0,1564l-1564,0l0,-1564z"/>
  </clipPath>
  <clipPath id="c0_7">
   <path id="svg_2" d="m728.2,1120.1l-63,-40.3l374.3,-584.5l63,40.3l-374.3,584.5z"/>
  </clipPath>
  <clipPath id="c1_7">
   <path id="svg_3" d="m707,1121.7l-204.1,-261.7l59,-46l204,261.7l-58.9,46z"/>
  </clipPath>
  <style type="text/css">
   <![CDATA[

.g0_7{
fill: #FFFFFF;
}
.g1_7{
fill: #D6D6D6;
}
.g2_7{
fill: #C2C2C2;
}

]]>
  </style>
 </defs>
 <g>
  <title>background</title>
  <rect fill="none" id="canvas_background" height="402" width="582" y="-1" x="-1"/>
 </g>
 <g>
  <title>Layer 1</title>
  <g id="svg_4" clip-path="url(#c_7)">
   <path id="svg_7" class="g1_7" d="m389.2,231.4c-45.4,0 -68.3,0.1 -92.6,7.7c-26.7,9.8 -47.7,30.8 -57.5,57.5c-7.7,24.4 -7.7,47.4 -7.7,92.6l0,785.3c0,46 0,69 7.7,93.4c9.8,26.7 30.8,47.7 57.5,57.4c24.4,7.7 47.4,7.7 92.6,7.7l785.3,0c46,0 69,0 93.4,-7.7c26.7,-9.7 47.7,-30.7 57.4,-57.4c7.7,-24.4 7.7,-47.5 7.7,-92.7l0,-785.3c0,-45.9 0,-68.9 -7.7,-93.3c-9.7,-26.7 -30.7,-47.7 -57.4,-57.5c-24.4,-7.7 -47.5,-7.7 -92.7,-7.7l-786,0zm59,82.6l668.1,0c38.4,0 58,0 78.7,6.6c22.7,8.3 40.6,26.1 48.8,48.8c6.6,20.8 6.6,40.3 6.6,79.4l0,667.5c0,38.4 0,58 -6.6,78.7c-8.2,22.7 -26.1,40.6 -48.8,48.8c-20.7,6.6 -40.3,6.6 -79.3,6.6l-667.5,0c-38.5,0 -58,0 -78.8,-6.6c-22.7,-8.2 -40.5,-26.1 -48.8,-48.8c-6.6,-20.7 -6.6,-40.3 -6.6,-79.3l0,-667.5c0,-38.5 0,-58 6.6,-78.8c8.3,-22.7 26.1,-40.5 48.8,-48.8c20.7,-6.5 40.2,-6.6 78.8,-6.6z"/>
   <g id="svg_8" clip-path="url(#c0_7)">
    <path id="svg_9" class="g2_7" d="m1070.1,516.8c16.7,10.7 21.6,32.8 10.9,49.5l-333.9,521.5c-10.7,16.7 -32.9,21.6 -49.6,10.9c-16.6,-10.7 -21.5,-32.9 -10.8,-49.5l333.9,-521.6c10.7,-16.6 32.9,-21.5 49.5,-10.8z"/>
   </g>
   <g id="svg_10" clip-path="url(#c1_7)">
    <path id="svg_11" class="g2_7" d="m533.4,838.2c15.6,-12.2 38.1,-9.4 50.3,6.2l158.1,202.8c12.1,15.6 9.3,38.1 -6.3,50.3c-15.6,12.2 -38.1,9.4 -50.3,-6.2l-158.1,-202.8c-12.1,-15.6 -9.3,-38.1 6.3,-50.3z"/>
   </g>
  </g>
 </g>
</svg>