<svg width="1564" height="1564" xmlns="http://www.w3.org/2000/svg">
 <defs>
  <clipPath id="c_9">
   <path id="svg_1" d="m0,0l1564,0l0,1564l-1564,0l0,-1564z"/>
  </clipPath>
  <clipPath id="c0_9">
   <path id="svg_2" d="m728.2,1120.1l-63,-40.3l374.3,-584.5l63,40.3l-374.3,584.5z"/>
  </clipPath>
  <clipPath id="c1_9">
   <path id="svg_3" d="m707,1121.7l-204.1,-261.7l59,-46l204,261.7l-58.9,46z"/>
  </clipPath>
  <style type="text/css">
   <![CDATA[

.g0_9{
fill: #FFFFFF;
}
.g1_9{
fill: #7BADF4;
}

]]>
  </style>
 </defs>
 <g>
  <title>background</title>
  <rect fill="none" id="canvas_background" height="402" width="582" y="-1" x="-1"/>
 </g>
 <g>
  <title>Layer 1</title>
  <g id="svg_4" clip-path="url(#c_9)">
   <path id="svg_7" class="g1_9" d="m389.2,231.4l786,0c45.3,0 68.2,0 92.6,7.7c26.8,9.8 47.8,30.8 57.5,57.5c7.7,24.4 7.7,47.4 7.7,93.3l0,785.3c0,45.3 0,68.2 -7.7,92.6c-9.7,26.8 -30.7,47.8 -57.5,57.5c-24.4,7.7 -47.3,7.7 -93.3,7.7l-785.3,0c-45.2,0 -68.2,0 -92.6,-7.7c-26.7,-9.7 -47.7,-30.7 -57.5,-57.5c-7.7,-24.4 -7.7,-47.3 -7.7,-93.3l0,-785.3c0,-45.2 0,-68.2 7.7,-92.6c9.8,-26.7 30.8,-47.7 57.5,-57.5c24.4,-7.7 47.4,-7.7 93.3,-7.7l-0.7,0z"/>
   <g id="svg_8" clip-path="url(#c0_9)">
    <path id="svg_9" class="g0_9" d="m1070.1,516.8c16.7,10.7 21.6,32.8 10.9,49.5l-333.9,521.5c-10.7,16.7 -32.9,21.6 -49.6,10.9c-16.6,-10.7 -21.5,-32.9 -10.8,-49.5l333.9,-521.6c10.7,-16.6 32.9,-21.5 49.5,-10.8z"/>
   </g>
   <g id="svg_10" clip-path="url(#c1_9)">
    <path id="svg_11" class="g0_9" d="m533.4,838.2c15.6,-12.2 38.1,-9.4 50.3,6.2l158.1,202.8c12.1,15.6 9.3,38.1 -6.3,50.3c-15.6,12.2 -38.1,9.4 -50.3,-6.2l-158.1,-202.8c-12.1,-15.6 -9.3,-38.1 6.3,-50.3z"/>
   </g>
  </g>
 </g>
</svg>