<svg width="1564" height="1564" xmlns="http://www.w3.org/2000/svg">
 <defs>
  <clipPath id="c_21">
   <path id="svg_1" d="m0,0l1564,0l0,1564l-1564,0l0,-1564z"/>
  </clipPath>
  <style type="text/css">
   <![CDATA[

.g0_21{
fill: #FFFFFF;
}
.g1_21{
fill: #474747;
}

]]>
  </style>
 </defs>
 <g>
  <title>background</title>
  <rect fill="none" id="canvas_background" height="402" width="582" y="-1" x="-1"/>
 </g>
 <g>
  <title>Layer 1</title>
  <g id="svg_2" clip-path="url(#c_21)">
   <path id="svg_5" class="g1_21" d="m499.9,346.2c-29.7,0 -53.8,24.1 -53.8,53.8l0,764.4c0,29.7 24.1,53.8 53.8,53.8c29.7,0 53.9,-24.1 53.9,-53.8l0,-332.9l466.3,0c28.6,0 42.9,0 58.1,-4.8c16.7,-6.1 29.8,-19.2 35.8,-35.8c4.9,-15.2 4.9,-29.5 4.9,-57.7l0,-236.9c0,-28.6 0,-43 -4.9,-58.2c-6,-16.6 -19.1,-29.7 -35.8,-35.7c-15.2,-4.8 -29.5,-4.8 -57.6,-4.8l-467.1,0c-1.3,-28.6 -24.7,-51.4 -53.6,-51.4z"/>
  </g>
 </g>
</svg>