<svg width="1564" height="1564" xmlns="http://www.w3.org/2000/svg">
 <defs>
  <clipPath id="c_20">
   <path id="svg_1" d="m0,0l1564,0l0,1564l-1564,0l0,-1564z"/>
  </clipPath>
  <style type="text/css">
   <![CDATA[

.g0_20{
fill: #FFFFFF;
}
.g1_20{
fill: #474747;
}

]]>
  </style>
 </defs>
 <g>
  <title>background</title>
  <rect fill="none" id="canvas_background" height="402" width="582" y="-1" x="-1"/>
 </g>
 <g>
  <title>Layer 1</title>
  <g id="svg_2" clip-path="url(#c_20)">
   <path id="svg_5" class="g1_20" d="m396.3,496.2c-24.3,0 -48.5,9.2 -67,27.7c-36.9,37 -36.9,96.9 0,133.9l382.7,382.7c19.4,19.3 44.9,28.5 70.2,27.6c25.3,0.9 50.9,-8.3 70.2,-27.6l382.7,-382.7c37,-37 37,-96.9 0,-133.9c-37,-36.9 -96.9,-36.9 -133.9,0l-319,319.1l-319,-319.1c-18.5,-18.5 -42.7,-27.7 -66.9,-27.7z"/>
  </g>
 </g>
</svg>