<svg width="1564" height="1564" xmlns="http://www.w3.org/2000/svg">
 <defs>
  <clipPath id="c_19">
   <path id="svg_1" d="m0,0l1564,0l0,1564l-1564,0l0,-1564z"/>
  </clipPath>
  <style type="text/css">
   <![CDATA[

.g0_19{
fill: #FFFFFF;
}
.g1_19{
fill: #474747;
}

]]>
  </style>
 </defs>
 <g>
  <title>background</title>
  <rect fill="none" id="canvas_background" height="402" width="582" y="-1" x="-1"/>
 </g>
 <g>
  <title>Layer 1</title>
  <g id="svg_2" clip-path="url(#c_19)">
   <path id="svg_5" class="g1_19" d="m1189.4,370.8c-42.8,0 -77.5,34.6 -77.5,77.4l0,262.1l-526,0l189.1,-189.1c30.3,-30.2 30.3,-79.3 0,-109.5c-30.2,-30.3 -79.3,-30.3 -109.5,0l-313.1,313.1c-15.8,15.8 -23.1,36.7 -22.4,57.3c0,1.3 -0.2,2.5 -0.2,3.8c0,0.6 -0.1,1.2 -0.1,1.9c0,27.4 14.4,51.4 36,65.2l299.8,299.8c30.2,30.2 79.3,30.2 109.5,0c30.3,-30.3 30.3,-79.3 0,-109.6l-178,-178l592.4,0c2.6,0 5.3,-0.1 7.9,-0.4c39.1,-3.9 69.5,-36.9 69.5,-77l0,-339.6c0,-42.8 -34.7,-77.4 -77.4,-77.4z"/>
  </g>
 </g>
</svg>