<svg width="1564" height="1564" xmlns="http://www.w3.org/2000/svg">
 <defs>
  <clipPath id="c_23">
   <path id="svg_1" d="m0,0l1564,0l0,1564l-1564,0l0,-1564z"/>
  </clipPath>
  <style type="text/css">
   <![CDATA[

.g0_23{
}
.g1_23{
fill: #FFFFFF;
}

]]>
  </style>
 </defs>
 <g>
  <title>background</title>
  <rect fill="none" id="canvas_background" height="402" width="582" y="-1" x="-1"/>
 </g>
 <g>
  <title>Layer 1</title>
  <g id="svg_2" clip-path="url(#c_23)">
   <path id="svg_5" class="g1_23" d="m779,198.8c-24.3,0 -48.5,9.2 -67,27.7l-382.7,382.7c-36.9,37 -36.9,96.9 0,133.9c37,36.9 96.9,36.9 133.9,0l224.3,-224.4l0,797.1c0,52.3 42.4,94.6 94.7,94.6c52.3,0 94.7,-42.3 94.7,-94.6l0,-797.1l224.3,224.4c37,36.9 96.9,36.9 133.9,0c37,-37 37,-96.9 0,-133.9l-382.7,-382.7c-18.9,-18.9 -43.8,-28.1 -68.6,-27.7c-0.5,0 -1,0 -1.6,0c-0.5,0 -1,0 -1.6,0c-0.5,0 -1.1,0 -1.6,0z"/>
  </g>
 </g>
</svg>